# Blender v2.90.1 OBJ File: ''
# www.blender.org
mtllib planetoid.mtl
o Icosphere
v 0.000000 0.707107 -0.707107
v 0.000000 0.382683 -0.923880
v 0.000000 -0.382684 -0.923880
v 0.000000 -0.923880 -0.382683
v 0.146447 0.923880 -0.353553
v 0.270598 0.707107 -0.653281
v 0.353553 0.382683 -0.853553
v 0.382683 -0.000000 -0.923880
v 0.353553 -0.382684 -0.853553
v 0.270598 -0.707107 -0.653281
v 0.146447 -0.923880 -0.353553
v 0.270598 0.923880 -0.270598
v 0.500000 0.707107 -0.500000
v 0.653281 0.382683 -0.653281
v 0.707107 -0.000000 -0.707107
v 0.653281 -0.382684 -0.653281
v 0.500000 -0.707107 -0.500000
v 0.270598 -0.923880 -0.270598
v 0.353553 0.923880 -0.146447
v 0.653281 0.707107 -0.270598
v 0.853553 0.382683 -0.353553
v 0.923879 -0.000000 -0.382683
v 0.853553 -0.382684 -0.353553
v 0.653281 -0.707107 -0.270598
v 0.353553 -0.923880 -0.146447
v 0.382683 0.923880 -0.000000
v 0.707107 0.707107 -0.000000
v 0.923879 0.382683 -0.000000
v 1.000000 -0.000000 -0.000000
v 0.923879 -0.382684 -0.000000
v 0.707107 -0.707107 -0.000000
v 0.382683 -0.923880 -0.000000
v 0.353553 0.923880 0.146446
v 0.653281 0.707107 0.270598
v 0.853553 0.382683 0.353553
v 0.923879 -0.000000 0.382683
v 0.853553 -0.382684 0.353553
v 0.653281 -0.707107 0.270598
v 0.353553 -0.923880 0.146446
v 0.270598 0.923880 0.270598
v 0.500000 0.707107 0.500000
v 0.653281 0.382683 0.653281
v 0.707106 -0.000000 0.707107
v 0.653281 -0.382684 0.653281
v 0.500000 -0.707107 0.500000
v 0.270598 -0.923880 0.270598
v 0.146446 0.923880 0.353553
v 0.270598 0.707107 0.653281
v 0.353553 0.382683 0.853553
v 0.382683 -0.000000 0.923879
v 0.353553 -0.382684 0.853553
v 0.270598 -0.707107 0.653281
v 0.146446 -0.923880 0.353553
v -0.000000 0.923880 0.382683
v -0.000000 0.707107 0.707106
v -0.000000 0.382683 0.923879
v -0.000000 -0.000000 1.000000
v -0.000000 -0.382684 0.923879
v -0.000000 -0.707107 0.707106
v -0.000000 -0.923880 0.382683
v -0.146447 0.923880 0.353553
v -0.270598 0.707107 0.653281
v -0.353554 0.382683 0.853553
v -0.382684 -0.000000 0.923879
v -0.353554 -0.382684 0.853553
v -0.270598 -0.707107 0.653281
v -0.146447 -0.923880 0.353553
v -0.270598 0.923880 0.270598
v -0.500000 0.707107 0.499999
v -0.653282 0.382683 0.653281
v -0.707107 -0.000000 0.707106
v -0.653282 -0.382684 0.653281
v -0.500000 -0.707107 0.499999
v -0.270598 -0.923880 0.270598
v -0.353553 0.923880 0.146446
v -0.653281 0.707107 0.270597
v -0.853553 0.382683 0.353553
v -0.923879 -0.000000 0.382683
v -0.853553 -0.382684 0.353553
v -0.653281 -0.707107 0.270597
v -0.353553 -0.923880 0.146446
v -0.382683 0.923880 -0.000000
v -0.707106 0.707107 -0.000000
v -0.923879 0.382683 -0.000001
v -1.000000 -0.000000 -0.000001
v -0.923879 -0.382684 -0.000001
v -0.707106 -0.707107 -0.000000
v -0.382683 -0.923880 -0.000000
v -0.353553 0.923880 -0.146447
v -0.653281 0.707107 -0.270598
v -0.853553 0.382683 -0.353554
v -0.923879 -0.000000 -0.382684
v -0.853553 -0.382684 -0.353554
v -0.653281 -0.707107 -0.270598
v -0.353553 -0.923880 -0.146447
v -0.270598 0.923880 -0.270598
v -0.499999 0.707107 -0.500000
v -0.653281 0.382683 -0.653282
v -0.707106 -0.000000 -0.707107
v -0.653281 -0.382684 -0.653282
v -0.499999 -0.707107 -0.500000
v -0.270598 -0.923880 -0.270598
v -0.146446 0.923880 -0.353553
v -0.270598 0.707107 -0.653281
v -0.353553 0.382683 -0.853553
v -0.382683 -0.000000 -0.923880
v -0.353553 -0.382684 -0.853553
v -0.270598 -0.707107 -0.653281
v -0.146446 -0.923880 -0.353553
v -0.000000 1.000000 -0.000000
v 0.000000 0.923880 -0.382683
v 0.000001 -0.000000 -1.000000
v 0.000000 -0.707107 -0.707106
v 0.000000 -1.000000 -0.000000
vt 0.750000 0.125000
vt 0.750000 0.250000
vt 0.687500 0.250000
vt 0.687500 0.125000
vt 0.750000 0.375000
vt 0.750000 0.500000
vt 0.687500 0.500000
vt 0.687500 0.375000
vt 0.750000 0.625000
vt 0.750000 0.750000
vt 0.687500 0.750000
vt 0.687500 0.625000
vt 0.750000 0.875000
vt 0.718750 1.000000
vt 0.687500 0.875000
vt 0.718750 0.000000
vt 0.656250 0.000000
vt 0.625000 0.125000
vt 0.625000 0.375000
vt 0.625000 0.250000
vt 0.625000 0.625000
vt 0.625000 0.500000
vt 0.625000 0.875000
vt 0.625000 0.750000
vt 0.656250 1.000000
vt 0.562500 0.625000
vt 0.562500 0.500000
vt 0.562500 0.875000
vt 0.562500 0.750000
vt 0.562500 0.250000
vt 0.562500 0.125000
vt 0.562500 0.375000
vt 0.593750 1.000000
vt 0.593750 0.000000
vt 0.500000 0.250000
vt 0.500000 0.125000
vt 0.500000 0.500000
vt 0.500000 0.375000
vt 0.500000 0.750000
vt 0.500000 0.625000
vt 0.531250 1.000000
vt 0.500000 0.875000
vt 0.531250 0.000000
vt 0.437500 0.750000
vt 0.437500 0.625000
vt 0.468750 1.000000
vt 0.437500 0.875000
vt 0.468750 0.000000
vt 0.437500 0.125000
vt 0.437500 0.375000
vt 0.437500 0.250000
vt 0.437500 0.500000
vt 0.406250 0.000000
vt 0.375000 0.125000
vt 0.375000 0.375000
vt 0.375000 0.250000
vt 0.375000 0.625000
vt 0.375000 0.500000
vt 0.375000 0.875000
vt 0.375000 0.750000
vt 0.406250 1.000000
vt 0.312500 0.875000
vt 0.312500 0.750000
vt 0.312500 0.250000
vt 0.312500 0.125000
vt 0.312500 0.500000
vt 0.312500 0.375000
vt 0.312500 0.625000
vt 0.343750 1.000000
vt 0.343750 0.000000
vt 0.250000 0.250000
vt 0.250000 0.125000
vt 0.250000 0.500000
vt 0.250000 0.375000
vt 0.250000 0.750000
vt 0.250000 0.625000
vt 0.281250 1.000000
vt 0.250000 0.875000
vt 0.281250 0.000000
vt 0.218750 1.000000
vt 0.187500 0.875000
vt 0.218750 0.000000
vt 0.187500 0.125000
vt 0.187500 0.375000
vt 0.187500 0.250000
vt 0.187500 0.625000
vt 0.187500 0.500000
vt 0.187500 0.750000
vt 0.125000 0.375000
vt 0.125000 0.250000
vt 0.125000 0.625000
vt 0.125000 0.500000
vt 0.125000 0.875000
vt 0.125000 0.750000
vt 0.125000 0.125000
vt 0.156250 1.000000
vt 0.156250 0.000000
vt 0.062500 0.250000
vt 0.062500 0.125000
vt 0.062500 0.500000
vt 0.062500 0.375000
vt 0.062500 0.750000
vt 0.062500 0.625000
vt 0.093750 1.000000
vt 0.062500 0.875000
vt 0.093750 0.000000
vt 0.000000 0.500000
vt 0.000000 0.375000
vt 0.000000 0.750000
vt 0.000000 0.625000
vt 0.031250 1.000000
vt 0.000000 0.875000
vt 0.031250 0.000000
vt 0.000000 0.125000
vt 0.000000 0.250000
vt 0.968750 0.000000
vt 1.000000 0.125000
vt 0.937500 0.125000
vt 1.000000 0.250000
vt 1.000000 0.375000
vt 0.937500 0.375000
vt 0.937500 0.250000
vt 1.000000 0.500000
vt 1.000000 0.625000
vt 0.937500 0.625000
vt 0.937500 0.500000
vt 1.000000 0.750000
vt 1.000000 0.875000
vt 0.937500 0.875000
vt 0.937500 0.750000
vt 0.968750 1.000000
vt 0.875000 0.625000
vt 0.875000 0.500000
vt 0.875000 0.875000
vt 0.875000 0.750000
vt 0.875000 0.250000
vt 0.875000 0.125000
vt 0.875000 0.375000
vt 0.906250 1.000000
vt 0.906250 0.000000
vt 0.812500 0.250000
vt 0.812500 0.125000
vt 0.812500 0.500000
vt 0.812500 0.375000
vt 0.812500 0.750000
vt 0.812500 0.625000
vt 0.843750 1.000000
vt 0.812500 0.875000
vt 0.843750 0.000000
vt 0.781250 1.000000
vt 0.781250 0.000000
vn 0.0000 -0.9152 -0.4031
vn 0.0000 -0.6952 -0.7188
vn 0.2751 -0.6952 -0.6641
vn 0.1542 -0.9152 -0.3724
vn 0.0000 -0.3743 -0.9273
vn 0.0000 0.0000 -1.0000
vn 0.3827 0.0000 -0.9239
vn 0.3548 -0.3743 -0.8567
vn 0.0000 0.3743 -0.9273
vn 0.0000 0.6952 -0.7188
vn 0.2751 0.6952 -0.6641
vn 0.3548 0.3743 -0.8567
vn 0.0000 0.9152 -0.4031
vn 0.0000 1.0000 0.0000
vn 0.1542 0.9152 -0.3724
vn 0.0000 -1.0000 0.0000
vn 0.2850 -0.9152 -0.2850
vn 0.6557 -0.3743 -0.6557
vn 0.5083 -0.6952 -0.5083
vn 0.6557 0.3743 -0.6557
vn 0.7071 0.0000 -0.7071
vn 0.2850 0.9152 -0.2850
vn 0.5083 0.6952 -0.5083
vn 0.8567 0.3743 -0.3548
vn 0.9239 0.0000 -0.3827
vn 0.3724 0.9152 -0.1542
vn 0.6641 0.6952 -0.2751
vn 0.6641 -0.6952 -0.2751
vn 0.3724 -0.9152 -0.1542
vn 0.8567 -0.3743 -0.3548
vn 0.7188 -0.6952 0.0000
vn 0.4031 -0.9152 0.0000
vn 1.0000 0.0000 0.0000
vn 0.9273 -0.3743 0.0000
vn 0.7188 0.6952 0.0000
vn 0.9273 0.3743 0.0000
vn 0.4031 0.9152 0.0000
vn 0.6641 0.6952 0.2751
vn 0.8567 0.3743 0.3548
vn 0.3724 0.9152 0.1542
vn 0.3724 -0.9152 0.1542
vn 0.8567 -0.3743 0.3548
vn 0.6641 -0.6952 0.2751
vn 0.9239 0.0000 0.3827
vn 0.2850 -0.9152 0.2850
vn 0.6557 -0.3743 0.6557
vn 0.5083 -0.6952 0.5083
vn 0.6557 0.3743 0.6557
vn 0.7071 0.0000 0.7071
vn 0.2850 0.9152 0.2850
vn 0.5083 0.6952 0.5083
vn 0.1542 0.9152 0.3724
vn 0.2751 0.6952 0.6641
vn 0.2751 -0.6952 0.6641
vn 0.1542 -0.9152 0.3724
vn 0.3827 0.0000 0.9239
vn 0.3548 -0.3743 0.8567
vn 0.3548 0.3743 0.8567
vn 0.0000 -0.6952 0.7188
vn 0.0000 -0.9152 0.4031
vn 0.0000 0.0000 1.0000
vn 0.0000 -0.3743 0.9273
vn 0.0000 0.6952 0.7188
vn 0.0000 0.3743 0.9273
vn 0.0000 0.9152 0.4031
vn -0.1542 0.9152 0.3724
vn -0.1542 -0.9152 0.3724
vn -0.3548 -0.3743 0.8567
vn -0.2751 -0.6952 0.6641
vn -0.3548 0.3743 0.8567
vn -0.3827 0.0000 0.9239
vn -0.2751 0.6952 0.6641
vn -0.6557 -0.3743 0.6557
vn -0.5083 -0.6952 0.5083
vn -0.6557 0.3743 0.6557
vn -0.7071 0.0000 0.7071
vn -0.2850 0.9152 0.2850
vn -0.5083 0.6952 0.5083
vn -0.2850 -0.9152 0.2850
vn -0.6641 -0.6952 0.2751
vn -0.3724 -0.9152 0.1542
vn -0.9239 0.0000 0.3827
vn -0.8567 -0.3743 0.3548
vn -0.6641 0.6952 0.2751
vn -0.8567 0.3743 0.3548
vn -0.3724 0.9152 0.1542
vn -1.0000 0.0000 0.0000
vn -0.9273 -0.3743 0.0000
vn -0.7188 0.6952 0.0000
vn -0.9273 0.3743 0.0000
vn -0.4031 0.9152 0.0000
vn -0.4031 -0.9152 0.0000
vn -0.7188 -0.6952 0.0000
vn -0.3724 -0.9152 -0.1542
vn -0.8567 -0.3743 -0.3548
vn -0.6641 -0.6952 -0.2751
vn -0.8567 0.3743 -0.3548
vn -0.9239 0.0000 -0.3827
vn -0.3724 0.9152 -0.1542
vn -0.6641 0.6952 -0.2751
vn -0.6557 0.3743 -0.6557
vn -0.7071 0.0000 -0.7071
vn -0.2850 0.9152 -0.2850
vn -0.5083 0.6952 -0.5083
vn -0.5083 -0.6952 -0.5083
vn -0.2850 -0.9152 -0.2850
vn -0.6557 -0.3743 -0.6557
vn -0.2751 -0.6952 -0.6641
vn -0.1542 -0.9152 -0.3724
vn -0.3827 0.0000 -0.9239
vn -0.3548 -0.3743 -0.8567
vn -0.2751 0.6952 -0.6641
vn -0.3548 0.3743 -0.8567
vn -0.1542 0.9152 -0.3724
usemtl None
s 1
f 4/1/1 113/2/2 10/3/3 11/4/4
f 3/5/5 112/6/6 8/7/7 9/8/8
f 2/9/9 1/10/10 6/11/11 7/12/12
f 111/13/13 110/14/14 5/15/15
f 114/16/16 4/1/1 11/4/4
f 113/2/2 3/5/5 9/8/8 10/3/3
f 112/6/6 2/9/9 7/12/12 8/7/7
f 1/10/10 111/13/13 5/15/15 6/11/11
f 114/17/16 11/4/4 18/18/17
f 10/3/3 9/8/8 16/19/18 17/20/19
f 8/7/7 7/12/12 14/21/20 15/22/21
f 6/11/11 5/15/15 12/23/22 13/24/23
f 11/4/4 10/3/3 17/20/19 18/18/17
f 9/8/8 8/7/7 15/22/21 16/19/18
f 7/12/12 6/11/11 13/24/23 14/21/20
f 5/15/15 110/25/14 12/23/22
f 15/22/21 14/21/20 21/26/24 22/27/25
f 13/24/23 12/23/22 19/28/26 20/29/27
f 18/18/17 17/20/19 24/30/28 25/31/29
f 16/19/18 15/22/21 22/27/25 23/32/30
f 14/21/20 13/24/23 20/29/27 21/26/24
f 12/23/22 110/33/14 19/28/26
f 114/34/16 18/18/17 25/31/29
f 17/20/19 16/19/18 23/32/30 24/30/28
f 25/31/29 24/30/28 31/35/31 32/36/32
f 23/32/30 22/27/25 29/37/33 30/38/34
f 21/26/24 20/29/27 27/39/35 28/40/36
f 19/28/26 110/41/14 26/42/37
f 114/43/16 25/31/29 32/36/32
f 24/30/28 23/32/30 30/38/34 31/35/31
f 22/27/25 21/26/24 28/40/36 29/37/33
f 20/29/27 19/28/26 26/42/37 27/39/35
f 28/40/36 27/39/35 34/44/38 35/45/39
f 26/42/37 110/46/14 33/47/40
f 114/48/16 32/36/32 39/49/41
f 31/35/31 30/38/34 37/50/42 38/51/43
f 29/37/33 28/40/36 35/45/39 36/52/44
f 27/39/35 26/42/37 33/47/40 34/44/38
f 32/36/32 31/35/31 38/51/43 39/49/41
f 30/38/34 29/37/33 36/52/44 37/50/42
f 114/53/16 39/49/41 46/54/45
f 38/51/43 37/50/42 44/55/46 45/56/47
f 36/52/44 35/45/39 42/57/48 43/58/49
f 34/44/38 33/47/40 40/59/50 41/60/51
f 39/49/41 38/51/43 45/56/47 46/54/45
f 37/50/42 36/52/44 43/58/49 44/55/46
f 35/45/39 34/44/38 41/60/51 42/57/48
f 33/47/40 110/61/14 40/59/50
f 41/60/51 40/59/50 47/62/52 48/63/53
f 46/54/45 45/56/47 52/64/54 53/65/55
f 44/55/46 43/58/49 50/66/56 51/67/57
f 42/57/48 41/60/51 48/63/53 49/68/58
f 40/59/50 110/69/14 47/62/52
f 114/70/16 46/54/45 53/65/55
f 45/56/47 44/55/46 51/67/57 52/64/54
f 43/58/49 42/57/48 49/68/58 50/66/56
f 53/65/55 52/64/54 59/71/59 60/72/60
f 51/67/57 50/66/56 57/73/61 58/74/62
f 49/68/58 48/63/53 55/75/63 56/76/64
f 47/62/52 110/77/14 54/78/65
f 114/79/16 53/65/55 60/72/60
f 52/64/54 51/67/57 58/74/62 59/71/59
f 50/66/56 49/68/58 56/76/64 57/73/61
f 48/63/53 47/62/52 54/78/65 55/75/63
f 54/78/65 110/80/14 61/81/66
f 114/82/16 60/72/60 67/83/67
f 59/71/59 58/74/62 65/84/68 66/85/69
f 57/73/61 56/76/64 63/86/70 64/87/71
f 55/75/63 54/78/65 61/81/66 62/88/72
f 60/72/60 59/71/59 66/85/69 67/83/67
f 58/74/62 57/73/61 64/87/71 65/84/68
f 56/76/64 55/75/63 62/88/72 63/86/70
f 66/85/69 65/84/68 72/89/73 73/90/74
f 64/87/71 63/86/70 70/91/75 71/92/76
f 62/88/72 61/81/66 68/93/77 69/94/78
f 67/83/67 66/85/69 73/90/74 74/95/79
f 65/84/68 64/87/71 71/92/76 72/89/73
f 63/86/70 62/88/72 69/94/78 70/91/75
f 61/81/66 110/96/14 68/93/77
f 114/97/16 67/83/67 74/95/79
f 74/95/79 73/90/74 80/98/80 81/99/81
f 72/89/73 71/92/76 78/100/82 79/101/83
f 70/91/75 69/94/78 76/102/84 77/103/85
f 68/93/77 110/104/14 75/105/86
f 114/106/16 74/95/79 81/99/81
f 73/90/74 72/89/73 79/101/83 80/98/80
f 71/92/76 70/91/75 77/103/85 78/100/82
f 69/94/78 68/93/77 75/105/86 76/102/84
f 79/101/83 78/100/82 85/107/87 86/108/88
f 77/103/85 76/102/84 83/109/89 84/110/90
f 75/105/86 110/111/14 82/112/91
f 114/113/16 81/99/81 88/114/92
f 80/98/80 79/101/83 86/108/88 87/115/93
f 78/100/82 77/103/85 84/110/90 85/107/87
f 76/102/84 75/105/86 82/112/91 83/109/89
f 81/99/81 80/98/80 87/115/93 88/114/92
f 114/116/16 88/117/92 95/118/94
f 87/119/93 86/120/88 93/121/95 94/122/96
f 85/123/87 84/124/90 91/125/97 92/126/98
f 83/127/89 82/128/91 89/129/99 90/130/100
f 88/117/92 87/119/93 94/122/96 95/118/94
f 86/120/88 85/123/87 92/126/98 93/121/95
f 84/124/90 83/127/89 90/130/100 91/125/97
f 82/128/91 110/131/14 89/129/99
f 92/126/98 91/125/97 98/132/101 99/133/102
f 90/130/100 89/129/99 96/134/103 97/135/104
f 95/118/94 94/122/96 101/136/105 102/137/106
f 93/121/95 92/126/98 99/133/102 100/138/107
f 91/125/97 90/130/100 97/135/104 98/132/101
f 89/129/99 110/139/14 96/134/103
f 114/140/16 95/118/94 102/137/106
f 94/122/96 93/121/95 100/138/107 101/136/105
f 102/137/106 101/136/105 108/141/108 109/142/109
f 100/138/107 99/133/102 106/143/110 107/144/111
f 98/132/101 97/135/104 104/145/112 105/146/113
f 96/134/103 110/147/14 103/148/114
f 114/149/16 102/137/106 109/142/109
f 101/136/105 100/138/107 107/144/111 108/141/108
f 99/133/102 98/132/101 105/146/113 106/143/110
f 97/135/104 96/134/103 103/148/114 104/145/112
f 105/146/113 104/145/112 1/10/10 2/9/9
f 103/148/114 110/150/14 111/13/13
f 114/151/16 109/142/109 4/1/1
f 108/141/108 107/144/111 3/5/5 113/2/2
f 106/143/110 105/146/113 2/9/9 112/6/6
f 104/145/112 103/148/114 111/13/13 1/10/10
f 109/142/109 108/141/108 113/2/2 4/1/1
f 107/144/111 106/143/110 112/6/6 3/5/5
